<?xml version="1.0" encoding="UTF-8" standalone="no"?>
<!DOCTYPE svg PUBLIC "-//W3C//DTD SVG 1.1//EN"
 "http://www.w3.org/Graphics/SVG/1.1/DTD/svg11.dtd">
<!-- Generated by graphviz version 2.47.3 (20210619.1520)
 -->
<!-- Title: dependencies Pages: 1 -->
<svg width="300pt" height="247pt"
 viewBox="0.00 0.00 300.00 246.80" xmlns="http://www.w3.org/2000/svg" xmlns:xlink="http://www.w3.org/1999/xlink">
<g id="graph0" class="graph" transform="scale(1 1) rotate(0) translate(4 242.8)">
<title>dependencies</title>
<polygon fill="white" stroke="transparent" points="-4,4 -4,-242.8 296,-242.8 296,4 -4,4"/>
<text text-anchor="middle" x="146" y="-8.2" font-family="sans-serif" font-size="14.00">dependencies</text>
<g id="clust1" class="cluster">
<title>cluster_HeaderModule</title>
<polygon fill="none" stroke="black" stroke-dasharray="1,5" points="8,-32.8 8,-230.8 284,-230.8 284,-32.8 8,-32.8"/>
</g>
<g id="clust4" class="cluster">
<title>cluster_HeaderModule_imports</title>
<polygon fill="none" stroke="black" points="162,-40.8 162,-92.8 276,-92.8 276,-40.8 162,-40.8"/>
</g>
<g id="clust5" class="cluster">
<title>cluster_HeaderModule_exports</title>
<polygon fill="none" stroke="black" points="75,-170.8 75,-222.8 217,-222.8 217,-170.8 75,-170.8"/>
</g>
<g id="clust2" class="cluster">
<title>cluster_HeaderModule_declarations</title>
<polygon fill="none" stroke="black" points="16,-40.8 16,-92.8 154,-92.8 154,-40.8 16,-40.8"/>
</g>
<!-- HeaderComponent -->
<g id="node1" class="node">
<title>HeaderComponent</title>
<polygon fill="#ffffb3" stroke="black" points="145.74,-84.8 24.26,-84.8 24.26,-48.8 145.74,-48.8 145.74,-84.8"/>
<text text-anchor="middle" x="85" y="-62.6" font-family="Times,serif" font-size="14.00">HeaderComponent</text>
</g>
<!-- HeaderModule -->
<g id="node2" class="node">
<title>HeaderModule</title>
<polygon fill="#8dd3c7" stroke="black" points="195.96,-149.8 192.96,-153.8 171.96,-153.8 168.96,-149.8 96.04,-149.8 96.04,-113.8 195.96,-113.8 195.96,-149.8"/>
<text text-anchor="middle" x="146" y="-127.6" font-family="Times,serif" font-size="14.00">HeaderModule</text>
</g>
<!-- HeaderComponent&#45;&gt;HeaderModule -->
<g id="edge1" class="edge">
<title>HeaderComponent&#45;&gt;HeaderModule</title>
<path fill="none" stroke="black" d="M120.95,-84.91C120.95,-84.91 120.95,-103.79 120.95,-103.79"/>
<polygon fill="black" stroke="black" points="117.45,-103.79 120.95,-113.79 124.45,-103.79 117.45,-103.79"/>
</g>
<!-- HeaderComponent  -->
<g id="node4" class="node">
<title>HeaderComponent </title>
<polygon fill="#fb8072" stroke="black" points="208.74,-214.8 83.26,-214.8 83.26,-178.8 208.74,-178.8 208.74,-214.8"/>
<text text-anchor="middle" x="146" y="-192.6" font-family="Times,serif" font-size="14.00">HeaderComponent </text>
</g>
<!-- HeaderModule&#45;&gt;HeaderComponent  -->
<g id="edge3" class="edge">
<title>HeaderModule&#45;&gt;HeaderComponent </title>
<path fill="none" stroke="black" stroke-dasharray="5,2" d="M146,-149.91C146,-149.91 146,-168.79 146,-168.79"/>
<polygon fill="black" stroke="black" points="142.5,-168.79 146,-178.79 149.5,-168.79 142.5,-168.79"/>
</g>
<!-- SharedModule -->
<g id="node3" class="node">
<title>SharedModule</title>
<polygon fill="#8dd3c7" stroke="black" points="268.42,-84.8 265.42,-88.8 244.42,-88.8 241.42,-84.8 169.58,-84.8 169.58,-48.8 268.42,-48.8 268.42,-84.8"/>
<text text-anchor="middle" x="219" y="-62.6" font-family="Times,serif" font-size="14.00">SharedModule</text>
</g>
<!-- SharedModule&#45;&gt;HeaderModule -->
<g id="edge2" class="edge">
<title>SharedModule&#45;&gt;HeaderModule</title>
<path fill="none" stroke="black" d="M182.88,-84.91C182.88,-84.91 182.88,-103.79 182.88,-103.79"/>
<polygon fill="black" stroke="black" points="179.38,-103.79 182.88,-113.79 186.38,-103.79 179.38,-103.79"/>
</g>
</g>
</svg>
