<?xml version="1.0" encoding="UTF-8" standalone="no"?>
<!DOCTYPE svg PUBLIC "-//W3C//DTD SVG 1.1//EN"
 "http://www.w3.org/Graphics/SVG/1.1/DTD/svg11.dtd">
<!-- Generated by graphviz version 2.47.3 (20210619.1520)
 -->
<!-- Title: dependencies Pages: 1 -->
<svg width="959pt" height="174pt"
 viewBox="0.00 0.00 959.00 173.80" xmlns="http://www.w3.org/2000/svg" xmlns:xlink="http://www.w3.org/1999/xlink">
<g id="graph0" class="graph" transform="scale(1 1) rotate(0) translate(4 169.8)">
<title>dependencies</title>
<polygon fill="white" stroke="transparent" points="-4,4 -4,-169.8 955,-169.8 955,4 -4,4"/>
<text text-anchor="middle" x="475.5" y="-8.2" font-family="sans-serif" font-size="14.00">dependencies</text>
<g id="clust1" class="cluster">
<title>cluster_SharedModule</title>
<polygon fill="none" stroke="black" stroke-dasharray="1,5" points="8,-32.8 8,-157.8 943,-157.8 943,-32.8 8,-32.8"/>
</g>
<g id="clust6" class="cluster">
<title>cluster_SharedModule_providers</title>
<polygon fill="none" stroke="black" points="16,-40.8 16,-92.8 935,-92.8 935,-40.8 16,-40.8"/>
</g>
<!-- ModuleService -->
<g id="node1" class="node">
<title>ModuleService</title>
<ellipse fill="#fdb462" stroke="black" cx="857" cy="-66.8" rx="70.06" ry="18"/>
<text text-anchor="middle" x="857" y="-62.6" font-family="Times,serif" font-size="14.00">ModuleService</text>
</g>
<!-- SharedModule -->
<g id="node6" class="node">
<title>SharedModule</title>
<polygon fill="#8dd3c7" stroke="black" points="532.42,-149.8 529.42,-153.8 508.42,-153.8 505.42,-149.8 433.58,-149.8 433.58,-113.8 532.42,-113.8 532.42,-149.8"/>
<text text-anchor="middle" x="483" y="-127.6" font-family="Times,serif" font-size="14.00">SharedModule</text>
</g>
<!-- ModuleService&#45;&gt;SharedModule -->
<g id="edge1" class="edge">
<title>ModuleService&#45;&gt;SharedModule</title>
<path fill="none" stroke="black" d="M857,-85.08C857,-106.12 857,-137.8 857,-137.8 857,-137.8 542.28,-137.8 542.28,-137.8"/>
<polygon fill="black" stroke="black" points="542.28,-134.3 532.28,-137.8 542.28,-141.3 542.28,-134.3"/>
</g>
<!-- SpecialisationService -->
<g id="node2" class="node">
<title>SpecialisationService</title>
<ellipse fill="#fdb462" stroke="black" cx="675" cy="-66.8" rx="94.33" ry="18"/>
<text text-anchor="middle" x="675" y="-62.6" font-family="Times,serif" font-size="14.00">SpecialisationService</text>
</g>
<!-- SpecialisationService&#45;&gt;SharedModule -->
<g id="edge2" class="edge">
<title>SpecialisationService&#45;&gt;SharedModule</title>
<path fill="none" stroke="black" d="M675,-84.82C675,-102.17 675,-125.8 675,-125.8 675,-125.8 542.44,-125.8 542.44,-125.8"/>
<polygon fill="black" stroke="black" points="542.44,-122.3 532.44,-125.8 542.44,-129.3 542.44,-122.3"/>
</g>
<!-- StudyPlanService -->
<g id="node3" class="node">
<title>StudyPlanService</title>
<ellipse fill="#fdb462" stroke="black" cx="483" cy="-66.8" rx="79.89" ry="18"/>
<text text-anchor="middle" x="483" y="-62.6" font-family="Times,serif" font-size="14.00">StudyPlanService</text>
</g>
<!-- StudyPlanService&#45;&gt;SharedModule -->
<g id="edge3" class="edge">
<title>StudyPlanService&#45;&gt;SharedModule</title>
<path fill="none" stroke="black" d="M483,-84.91C483,-84.91 483,-103.79 483,-103.79"/>
<polygon fill="black" stroke="black" points="479.5,-103.79 483,-113.79 486.5,-103.79 479.5,-103.79"/>
</g>
<!-- StudyProgramService -->
<g id="node4" class="node">
<title>StudyProgramService</title>
<ellipse fill="#fdb462" stroke="black" cx="290" cy="-66.8" rx="95.57" ry="18"/>
<text text-anchor="middle" x="290" y="-62.6" font-family="Times,serif" font-size="14.00">StudyProgramService</text>
</g>
<!-- StudyProgramService&#45;&gt;SharedModule -->
<g id="edge4" class="edge">
<title>StudyProgramService&#45;&gt;SharedModule</title>
<path fill="none" stroke="black" d="M290,-84.82C290,-102.17 290,-125.8 290,-125.8 290,-125.8 423.55,-125.8 423.55,-125.8"/>
<polygon fill="black" stroke="black" points="423.55,-129.3 433.55,-125.8 423.55,-122.3 423.55,-129.3"/>
</g>
<!-- ValidatorService -->
<g id="node5" class="node">
<title>ValidatorService</title>
<ellipse fill="#fdb462" stroke="black" cx="100" cy="-66.8" rx="76.42" ry="18"/>
<text text-anchor="middle" x="100" y="-62.6" font-family="Times,serif" font-size="14.00">ValidatorService</text>
</g>
<!-- ValidatorService&#45;&gt;SharedModule -->
<g id="edge5" class="edge">
<title>ValidatorService&#45;&gt;SharedModule</title>
<path fill="none" stroke="black" d="M100,-85.08C100,-106.12 100,-137.8 100,-137.8 100,-137.8 423.71,-137.8 423.71,-137.8"/>
<polygon fill="black" stroke="black" points="423.71,-141.3 433.71,-137.8 423.71,-134.3 423.71,-141.3"/>
</g>
</g>
</svg>
