<?xml version="1.0" encoding="UTF-8" standalone="no"?>
<!DOCTYPE svg PUBLIC "-//W3C//DTD SVG 1.1//EN"
 "http://www.w3.org/Graphics/SVG/1.1/DTD/svg11.dtd">
<!-- Generated by graphviz version 2.47.3 (20210619.1520)
 -->
<!-- Title: dependencies Pages: 1 -->
<svg width="294pt" height="247pt"
 viewBox="0.00 0.00 294.00 246.80" xmlns="http://www.w3.org/2000/svg" xmlns:xlink="http://www.w3.org/1999/xlink">
<g id="graph0" class="graph" transform="scale(1 1) rotate(0) translate(4 242.8)">
<title>dependencies</title>
<polygon fill="white" stroke="transparent" points="-4,4 -4,-242.8 290,-242.8 290,4 -4,4"/>
<text text-anchor="middle" x="143" y="-8.2" font-family="sans-serif" font-size="14.00">dependencies</text>
<g id="clust1" class="cluster">
<title>cluster_HomeModule</title>
<polygon fill="none" stroke="black" stroke-dasharray="1,5" points="8,-32.8 8,-230.8 278,-230.8 278,-32.8 8,-32.8"/>
</g>
<g id="clust2" class="cluster">
<title>cluster_HomeModule_declarations</title>
<polygon fill="none" stroke="black" points="138,-40.8 138,-92.8 270,-92.8 270,-40.8 138,-40.8"/>
</g>
<g id="clust5" class="cluster">
<title>cluster_HomeModule_exports</title>
<polygon fill="none" stroke="black" points="75,-170.8 75,-222.8 211,-222.8 211,-170.8 75,-170.8"/>
</g>
<g id="clust4" class="cluster">
<title>cluster_HomeModule_imports</title>
<polygon fill="none" stroke="black" points="16,-40.8 16,-92.8 130,-92.8 130,-40.8 16,-40.8"/>
</g>
<!-- HomeComponent -->
<g id="node1" class="node">
<title>HomeComponent</title>
<polygon fill="#ffffb3" stroke="black" points="261.55,-84.8 146.45,-84.8 146.45,-48.8 261.55,-48.8 261.55,-84.8"/>
<text text-anchor="middle" x="204" y="-62.6" font-family="Times,serif" font-size="14.00">HomeComponent</text>
</g>
<!-- HomeModule -->
<g id="node2" class="node">
<title>HomeModule</title>
<polygon fill="#8dd3c7" stroke="black" points="189.76,-149.8 186.76,-153.8 165.76,-153.8 162.76,-149.8 96.24,-149.8 96.24,-113.8 189.76,-113.8 189.76,-149.8"/>
<text text-anchor="middle" x="143" y="-127.6" font-family="Times,serif" font-size="14.00">HomeModule</text>
</g>
<!-- HomeComponent&#45;&gt;HomeModule -->
<g id="edge1" class="edge">
<title>HomeComponent&#45;&gt;HomeModule</title>
<path fill="none" stroke="black" d="M168.05,-84.91C168.05,-84.91 168.05,-103.79 168.05,-103.79"/>
<polygon fill="black" stroke="black" points="164.55,-103.79 168.05,-113.79 171.55,-103.79 164.55,-103.79"/>
</g>
<!-- HomeComponent  -->
<g id="node4" class="node">
<title>HomeComponent </title>
<polygon fill="#fb8072" stroke="black" points="202.54,-214.8 83.46,-214.8 83.46,-178.8 202.54,-178.8 202.54,-214.8"/>
<text text-anchor="middle" x="143" y="-192.6" font-family="Times,serif" font-size="14.00">HomeComponent </text>
</g>
<!-- HomeModule&#45;&gt;HomeComponent  -->
<g id="edge3" class="edge">
<title>HomeModule&#45;&gt;HomeComponent </title>
<path fill="none" stroke="black" stroke-dasharray="5,2" d="M143,-149.91C143,-149.91 143,-168.79 143,-168.79"/>
<polygon fill="black" stroke="black" points="139.5,-168.79 143,-178.79 146.5,-168.79 139.5,-168.79"/>
</g>
<!-- SharedModule -->
<g id="node3" class="node">
<title>SharedModule</title>
<polygon fill="#8dd3c7" stroke="black" points="122.42,-84.8 119.42,-88.8 98.42,-88.8 95.42,-84.8 23.58,-84.8 23.58,-48.8 122.42,-48.8 122.42,-84.8"/>
<text text-anchor="middle" x="73" y="-62.6" font-family="Times,serif" font-size="14.00">SharedModule</text>
</g>
<!-- SharedModule&#45;&gt;HomeModule -->
<g id="edge2" class="edge">
<title>SharedModule&#45;&gt;HomeModule</title>
<path fill="none" stroke="black" d="M109.17,-84.91C109.17,-84.91 109.17,-103.79 109.17,-103.79"/>
<polygon fill="black" stroke="black" points="105.67,-103.79 109.17,-113.79 112.67,-103.79 105.67,-103.79"/>
</g>
</g>
</svg>
