<?xml version="1.0" encoding="UTF-8" standalone="no"?>
<!DOCTYPE svg PUBLIC "-//W3C//DTD SVG 1.1//EN"
 "http://www.w3.org/Graphics/SVG/1.1/DTD/svg11.dtd">
<!-- Generated by graphviz version 2.47.3 (20210619.1520)
 -->
<!-- Title: dependencies Pages: 1 -->
<svg width="500pt" height="174pt"
 viewBox="0.00 0.00 500.00 173.80" xmlns="http://www.w3.org/2000/svg" xmlns:xlink="http://www.w3.org/1999/xlink">
<g id="graph0" class="graph" transform="scale(1 1) rotate(0) translate(4 169.8)">
<title>dependencies</title>
<polygon fill="white" stroke="transparent" points="-4,4 -4,-169.8 496,-169.8 496,4 -4,4"/>
<text text-anchor="middle" x="246" y="-8.2" font-family="sans-serif" font-size="14.00">dependencies</text>
<g id="clust1" class="cluster">
<title>cluster_StudyPlanModule</title>
<polygon fill="none" stroke="black" stroke-dasharray="1,5" points="8,-32.8 8,-157.8 484,-157.8 484,-32.8 8,-32.8"/>
</g>
<g id="clust5" class="cluster">
<title>cluster_StudyPlanModule_imports</title>
<polygon fill="none" stroke="black" points="362,-40.8 362,-92.8 476,-92.8 476,-40.8 362,-40.8"/>
</g>
<g id="clust2" class="cluster">
<title>cluster_StudyPlanModule_declarations</title>
<polygon fill="none" stroke="black" points="16,-40.8 16,-92.8 354,-92.8 354,-40.8 16,-40.8"/>
</g>
<!-- StudyPlanComponent -->
<g id="node1" class="node">
<title>StudyPlanComponent</title>
<polygon fill="#ffffb3" stroke="black" points="346.39,-84.8 207.61,-84.8 207.61,-48.8 346.39,-48.8 346.39,-84.8"/>
<text text-anchor="middle" x="277" y="-62.6" font-family="Times,serif" font-size="14.00">StudyPlanComponent</text>
</g>
<!-- StudyPlanModule -->
<g id="node3" class="node">
<title>StudyPlanModule</title>
<polygon fill="#8dd3c7" stroke="black" points="335.61,-149.8 332.61,-153.8 311.61,-153.8 308.61,-149.8 218.39,-149.8 218.39,-113.8 335.61,-113.8 335.61,-149.8"/>
<text text-anchor="middle" x="277" y="-127.6" font-family="Times,serif" font-size="14.00">StudyPlanModule</text>
</g>
<!-- StudyPlanComponent&#45;&gt;StudyPlanModule -->
<g id="edge1" class="edge">
<title>StudyPlanComponent&#45;&gt;StudyPlanModule</title>
<path fill="none" stroke="black" d="M277,-84.91C277,-84.91 277,-103.79 277,-103.79"/>
<polygon fill="black" stroke="black" points="273.5,-103.79 277,-113.79 280.5,-103.79 273.5,-103.79"/>
</g>
<!-- StudyPlanStartComponent -->
<g id="node2" class="node">
<title>StudyPlanStartComponent</title>
<polygon fill="#ffffb3" stroke="black" points="189.83,-84.8 24.17,-84.8 24.17,-48.8 189.83,-48.8 189.83,-84.8"/>
<text text-anchor="middle" x="107" y="-62.6" font-family="Times,serif" font-size="14.00">StudyPlanStartComponent</text>
</g>
<!-- StudyPlanStartComponent&#45;&gt;StudyPlanModule -->
<g id="edge2" class="edge">
<title>StudyPlanStartComponent&#45;&gt;StudyPlanModule</title>
<path fill="none" stroke="black" d="M107,-84.91C107,-104.14 107,-131.8 107,-131.8 107,-131.8 208.02,-131.8 208.02,-131.8"/>
<polygon fill="black" stroke="black" points="208.02,-135.3 218.02,-131.8 208.02,-128.3 208.02,-135.3"/>
</g>
<!-- SharedModule -->
<g id="node4" class="node">
<title>SharedModule</title>
<polygon fill="#8dd3c7" stroke="black" points="468.42,-84.8 465.42,-88.8 444.42,-88.8 441.42,-84.8 369.58,-84.8 369.58,-48.8 468.42,-48.8 468.42,-84.8"/>
<text text-anchor="middle" x="419" y="-62.6" font-family="Times,serif" font-size="14.00">SharedModule</text>
</g>
<!-- SharedModule&#45;&gt;StudyPlanModule -->
<g id="edge3" class="edge">
<title>SharedModule&#45;&gt;StudyPlanModule</title>
<path fill="none" stroke="black" d="M419,-84.91C419,-104.14 419,-131.8 419,-131.8 419,-131.8 345.58,-131.8 345.58,-131.8"/>
<polygon fill="black" stroke="black" points="345.58,-128.3 335.58,-131.8 345.58,-135.3 345.58,-128.3"/>
</g>
</g>
</svg>
