<?xml version="1.0" encoding="UTF-8" standalone="no"?>
<!DOCTYPE svg PUBLIC "-//W3C//DTD SVG 1.1//EN"
 "http://www.w3.org/Graphics/SVG/1.1/DTD/svg11.dtd">
<!-- Generated by graphviz version 2.47.3 (20210619.1520)
 -->
<!-- Title: dependencies Pages: 1 -->
<svg width="1084pt" height="247pt"
 viewBox="0.00 0.00 1084.00 246.80" xmlns="http://www.w3.org/2000/svg" xmlns:xlink="http://www.w3.org/1999/xlink">
<g id="graph0" class="graph" transform="scale(1 1) rotate(0) translate(4 242.8)">
<title>dependencies</title>
<polygon fill="white" stroke="transparent" points="-4,4 -4,-242.8 1080,-242.8 1080,4 -4,4"/>
<text text-anchor="middle" x="538" y="-8.2" font-family="sans-serif" font-size="14.00">dependencies</text>
<g id="clust1" class="cluster">
<title>cluster_AppModule</title>
<polygon fill="none" stroke="black" stroke-dasharray="1,5" points="8,-32.8 8,-230.8 1068,-230.8 1068,-32.8 8,-32.8"/>
</g>
<g id="clust4" class="cluster">
<title>cluster_AppModule_imports</title>
<polygon fill="none" stroke="black" points="294,-40.8 294,-92.8 1060,-92.8 1060,-40.8 294,-40.8"/>
</g>
<g id="clust2" class="cluster">
<title>cluster_AppModule_declarations</title>
<polygon fill="none" stroke="black" points="164,-40.8 164,-92.8 286,-92.8 286,-40.8 164,-40.8"/>
</g>
<g id="clust6" class="cluster">
<title>cluster_AppModule_bootstrap</title>
<polygon fill="none" stroke="black" points="489,-170.8 489,-222.8 613,-222.8 613,-170.8 489,-170.8"/>
</g>
<g id="clust7" class="cluster">
<title>cluster_AppModule_providers</title>
<polygon fill="none" stroke="black" points="16,-40.8 16,-92.8 156,-92.8 156,-40.8 16,-40.8"/>
</g>
<!-- AppComponent -->
<g id="node1" class="node">
<title>AppComponent</title>
<polygon fill="#ffffb3" stroke="black" points="277.94,-84.8 172.06,-84.8 172.06,-48.8 277.94,-48.8 277.94,-84.8"/>
<text text-anchor="middle" x="225" y="-62.6" font-family="Times,serif" font-size="14.00">AppComponent</text>
</g>
<!-- AppModule -->
<g id="node2" class="node">
<title>AppModule</title>
<polygon fill="#8dd3c7" stroke="black" points="592.66,-149.8 589.66,-153.8 568.66,-153.8 565.66,-149.8 509.34,-149.8 509.34,-113.8 592.66,-113.8 592.66,-149.8"/>
<text text-anchor="middle" x="551" y="-127.6" font-family="Times,serif" font-size="14.00">AppModule</text>
</g>
<!-- AppComponent&#45;&gt;AppModule -->
<g id="edge1" class="edge">
<title>AppComponent&#45;&gt;AppModule</title>
<path fill="none" stroke="black" d="M225,-84.91C225,-104.14 225,-131.8 225,-131.8 225,-131.8 499.05,-131.8 499.05,-131.8"/>
<polygon fill="black" stroke="black" points="499.05,-135.3 509.05,-131.8 499.05,-128.3 499.05,-135.3"/>
</g>
<!-- AppComponent  -->
<g id="node9" class="node">
<title>AppComponent </title>
<polygon fill="#80b1d3" stroke="black" points="605.44,-214.8 496.56,-214.8 496.56,-178.8 605.44,-178.8 605.44,-214.8"/>
<text text-anchor="middle" x="551" y="-192.6" font-family="Times,serif" font-size="14.00">AppComponent </text>
</g>
<!-- AppModule&#45;&gt;AppComponent  -->
<g id="edge8" class="edge">
<title>AppModule&#45;&gt;AppComponent </title>
<path fill="none" stroke="black" stroke-dasharray="1,5" d="M551,-149.91C551,-149.91 551,-168.79 551,-168.79"/>
<polygon fill="black" stroke="black" points="547.5,-168.79 551,-178.79 554.5,-168.79 547.5,-168.79"/>
</g>
<!-- AppRoutingModule -->
<g id="node3" class="node">
<title>AppRoutingModule</title>
<polygon fill="#8dd3c7" stroke="black" points="1052.27,-84.8 1049.27,-88.8 1028.27,-88.8 1025.27,-84.8 923.73,-84.8 923.73,-48.8 1052.27,-48.8 1052.27,-84.8"/>
<text text-anchor="middle" x="988" y="-62.6" font-family="Times,serif" font-size="14.00">AppRoutingModule</text>
</g>
<!-- AppRoutingModule&#45;&gt;AppModule -->
<g id="edge2" class="edge">
<title>AppRoutingModule&#45;&gt;AppModule</title>
<path fill="none" stroke="black" d="M988,-85.09C988,-107.01 988,-140.8 988,-140.8 988,-140.8 602.9,-140.8 602.9,-140.8"/>
<polygon fill="black" stroke="black" points="602.9,-137.3 592.9,-140.8 602.9,-144.3 602.9,-137.3"/>
</g>
<!-- HeaderModule -->
<g id="node4" class="node">
<title>HeaderModule</title>
<polygon fill="#8dd3c7" stroke="black" points="905.96,-84.8 902.96,-88.8 881.96,-88.8 878.96,-84.8 806.04,-84.8 806.04,-48.8 905.96,-48.8 905.96,-84.8"/>
<text text-anchor="middle" x="856" y="-62.6" font-family="Times,serif" font-size="14.00">HeaderModule</text>
</g>
<!-- HeaderModule&#45;&gt;AppModule -->
<g id="edge3" class="edge">
<title>HeaderModule&#45;&gt;AppModule</title>
<path fill="none" stroke="black" d="M856,-84.91C856,-104.14 856,-131.8 856,-131.8 856,-131.8 602.77,-131.8 602.77,-131.8"/>
<polygon fill="black" stroke="black" points="602.77,-128.3 592.77,-131.8 602.77,-135.3 602.77,-128.3"/>
</g>
<!-- HomeModule -->
<g id="node5" class="node">
<title>HomeModule</title>
<polygon fill="#8dd3c7" stroke="black" points="787.76,-84.8 784.76,-88.8 763.76,-88.8 760.76,-84.8 694.24,-84.8 694.24,-48.8 787.76,-48.8 787.76,-84.8"/>
<text text-anchor="middle" x="741" y="-62.6" font-family="Times,serif" font-size="14.00">HomeModule</text>
</g>
<!-- HomeModule&#45;&gt;AppModule -->
<g id="edge4" class="edge">
<title>HomeModule&#45;&gt;AppModule</title>
<path fill="none" stroke="black" d="M741,-84.83C741,-101.2 741,-122.8 741,-122.8 741,-122.8 602.7,-122.8 602.7,-122.8"/>
<polygon fill="black" stroke="black" points="602.7,-119.3 592.7,-122.8 602.7,-126.3 602.7,-119.3"/>
</g>
<!-- ImpressumModule -->
<g id="node6" class="node">
<title>ImpressumModule</title>
<polygon fill="#8dd3c7" stroke="black" points="675.76,-84.8 672.76,-88.8 651.76,-88.8 648.76,-84.8 554.24,-84.8 554.24,-48.8 675.76,-48.8 675.76,-84.8"/>
<text text-anchor="middle" x="615" y="-62.6" font-family="Times,serif" font-size="14.00">ImpressumModule</text>
</g>
<!-- ImpressumModule&#45;&gt;AppModule -->
<g id="edge5" class="edge">
<title>ImpressumModule&#45;&gt;AppModule</title>
<path fill="none" stroke="black" d="M573.48,-84.91C573.48,-84.91 573.48,-103.79 573.48,-103.79"/>
<polygon fill="black" stroke="black" points="569.98,-103.79 573.48,-113.79 576.98,-103.79 569.98,-103.79"/>
</g>
<!-- SharedModule -->
<g id="node7" class="node">
<title>SharedModule</title>
<polygon fill="#8dd3c7" stroke="black" points="536.42,-84.8 533.42,-88.8 512.42,-88.8 509.42,-84.8 437.58,-84.8 437.58,-48.8 536.42,-48.8 536.42,-84.8"/>
<text text-anchor="middle" x="487" y="-62.6" font-family="Times,serif" font-size="14.00">SharedModule</text>
</g>
<!-- SharedModule&#45;&gt;AppModule -->
<g id="edge6" class="edge">
<title>SharedModule&#45;&gt;AppModule</title>
<path fill="none" stroke="black" d="M522.69,-84.91C522.69,-84.91 522.69,-103.79 522.69,-103.79"/>
<polygon fill="black" stroke="black" points="519.19,-103.79 522.69,-113.79 526.19,-103.79 519.19,-103.79"/>
</g>
<!-- StudyPlanModule -->
<g id="node8" class="node">
<title>StudyPlanModule</title>
<polygon fill="#8dd3c7" stroke="black" points="419.61,-84.8 416.61,-88.8 395.61,-88.8 392.61,-84.8 302.39,-84.8 302.39,-48.8 419.61,-48.8 419.61,-84.8"/>
<text text-anchor="middle" x="361" y="-62.6" font-family="Times,serif" font-size="14.00">StudyPlanModule</text>
</g>
<!-- StudyPlanModule&#45;&gt;AppModule -->
<g id="edge7" class="edge">
<title>StudyPlanModule&#45;&gt;AppModule</title>
<path fill="none" stroke="black" d="M361,-84.83C361,-101.2 361,-122.8 361,-122.8 361,-122.8 499.3,-122.8 499.3,-122.8"/>
<polygon fill="black" stroke="black" points="499.3,-126.3 509.3,-122.8 499.3,-119.3 499.3,-126.3"/>
</g>
<!-- HttpWrapper -->
<g id="node10" class="node">
<title>HttpWrapper</title>
<ellipse fill="#fdb462" stroke="black" cx="86" cy="-66.8" rx="61.96" ry="18"/>
<text text-anchor="middle" x="86" y="-62.6" font-family="Times,serif" font-size="14.00">HttpWrapper</text>
</g>
<!-- HttpWrapper&#45;&gt;AppModule -->
<g id="edge9" class="edge">
<title>HttpWrapper&#45;&gt;AppModule</title>
<path fill="none" stroke="black" d="M86,-85.09C86,-107.01 86,-140.8 86,-140.8 86,-140.8 499.33,-140.8 499.33,-140.8"/>
<polygon fill="black" stroke="black" points="499.33,-144.3 509.33,-140.8 499.33,-137.3 499.33,-144.3"/>
</g>
</g>
</svg>
